<mxfile host="Electron" modified="2024-07-22T00:42:17.212Z" agent="Mozilla/5.0 (Macintosh; Intel Mac OS X 10_15_7) AppleWebKit/537.36 (KHTML, like Gecko) draw.io/24.6.4 Chrome/124.0.6367.207 Electron/30.0.6 Safari/537.36" etag="ysrH4LZ1Y9nHVSqdeId5" version="24.6.4" type="device">
  <diagram name="Page-1" id="XLdHngfihyDcz6lYxa2j">
    <mxGraphModel dx="1100" dy="707" grid="1" gridSize="10" guides="1" tooltips="1" connect="1" arrows="1" fold="1" page="1" pageScale="1" pageWidth="1100" pageHeight="850" math="0" shadow="0">
      <root>
        <mxCell id="0" />
        <mxCell id="1" parent="0" />
        <mxCell id="Jc2duxOYq8pNIHIzxbGP-1" value="Display" style="rounded=1;whiteSpace=wrap;html=1;container=1;recursiveResize=0;verticalAlign=top;arcSize=6;fontStyle=1;autosize=0;points=[];absoluteArcSize=1;shadow=1;strokeColor=#6c8ebf;fillColor=#dae8fc;fontFamily=Helvetica;fontSize=11;gradientColor=#0050EF;fontColor=default;" vertex="1" parent="1">
          <mxGeometry x="520" y="120" width="140" height="200" as="geometry">
            <mxRectangle x="-98" y="-1230" width="99" height="26" as="alternateBounds" />
          </mxGeometry>
        </mxCell>
        <mxCell id="Jc2duxOYq8pNIHIzxbGP-2" value="ball position" style="rounded=1;whiteSpace=wrap;html=1;sketch=0;points=[[0,0.5,0,0,0],[1,0.5,0,0,0]];arcSize=50;fontFamily=Helvetica;fontSize=11;fontColor=default;" vertex="1" parent="Jc2duxOYq8pNIHIzxbGP-1">
          <mxGeometry x="-10" y="30" width="50" height="25" as="geometry" />
        </mxCell>
        <mxCell id="Jc2duxOYq8pNIHIzxbGP-15" value="Scanner" style="rounded=1;whiteSpace=wrap;html=1;container=1;recursiveResize=0;verticalAlign=top;arcSize=6;fontStyle=1;autosize=0;points=[];absoluteArcSize=1;shadow=1;strokeColor=#6c8ebf;fillColor=#dae8fc;fontFamily=Helvetica;fontSize=11;gradientColor=#0050EF;fontColor=default;" vertex="1" parent="1">
          <mxGeometry x="230" y="80" width="140" height="200" as="geometry">
            <mxRectangle x="-98" y="-1230" width="99" height="26" as="alternateBounds" />
          </mxGeometry>
        </mxCell>
        <mxCell id="Jc2duxOYq8pNIHIzxbGP-24" value="ball pos" style="rounded=1;whiteSpace=wrap;html=1;sketch=0;points=[[0,0.5,0,0,0],[1,0.5,0,0,0]];fillColor=#1ba1e2;fontColor=#ffffff;strokeColor=#006EAF;arcSize=50;fontFamily=Helvetica;fontSize=11;" vertex="1" parent="Jc2duxOYq8pNIHIzxbGP-15">
          <mxGeometry x="106" y="70" width="50" height="25" as="geometry" />
        </mxCell>
        <mxCell id="Jc2duxOYq8pNIHIzxbGP-25" style="edgeStyle=orthogonalEdgeStyle;rounded=1;orthogonalLoop=1;jettySize=auto;html=1;exitX=1;exitY=0.5;exitDx=0;exitDy=0;exitPerimeter=0;entryX=0;entryY=0.5;entryDx=0;entryDy=0;entryPerimeter=0;strokeWidth=2;curved=0;" edge="1" parent="1" source="Jc2duxOYq8pNIHIzxbGP-24" target="Jc2duxOYq8pNIHIzxbGP-2">
          <mxGeometry relative="1" as="geometry" />
        </mxCell>
        <mxCell id="Jc2duxOYq8pNIHIzxbGP-18" value="smack L" style="rounded=1;whiteSpace=wrap;html=1;sketch=0;points=[[0,0.5,0,0,0],[1,0.5,0,0,0]];arcSize=50;fontFamily=Helvetica;fontSize=11;" vertex="1" parent="1">
          <mxGeometry x="40" y="160" width="50" height="25" as="geometry" />
        </mxCell>
      </root>
    </mxGraphModel>
  </diagram>
</mxfile>
